<?xml version="1.0" encoding="utf-8"?>
<!-- Generator: Adobe Illustrator 16.0.0, SVG Export Plug-In . SVG Version: 6.00 Build 0)  -->
<!DOCTYPE svg PUBLIC "-//W3C//DTD SVG 1.1//EN" "http://www.w3.org/Graphics/SVG/1.1/DTD/svg11.dtd">
<svg version="1.1" xmlns="http://www.w3.org/2000/svg" xmlns:xlink="http://www.w3.org/1999/xlink" x="0px" y="0px"
	 width="306.493px" height="112.338px" viewBox="0 0 306.493 112.338" enable-background="new 0 0 306.493 112.338"
	 xml:space="preserve">
<g id="Camada_1" display="none">
	<g display="inline">
		<g>
			<path d="M6.043,36.071l0.353,10.746l-0.264-1.233c0.938-3.171,2.774-5.651,5.505-7.442c2.73-1.791,5.769-2.687,9.116-2.687
				c3.112,0,5.593,0.925,7.443,2.774s2.803,4.214,2.862,7.09v24.046h-1.762v-23.87c-0.059-2.348-0.836-4.33-2.334-5.945
				c-1.497-1.614-3.626-2.48-6.386-2.599c-2.466,0-4.771,0.544-6.914,1.63c-2.145,1.087-3.875,2.613-5.197,4.58
				c-1.321,1.968-1.982,4.272-1.982,6.914v19.29H4.722V36.071H6.043z"/>
			<path d="M47.353,70.069c-3.113,0-5.58-0.925-7.399-2.774c-1.821-1.85-2.79-4.242-2.907-7.179V36.071h1.762v23.781
				c0.058,2.409,0.837,4.419,2.334,6.034c1.498,1.616,3.685,2.481,6.562,2.598c2.348,0,4.594-0.572,6.738-1.717
				c2.143-1.145,3.875-2.715,5.197-4.712c1.321-1.996,1.981-4.257,1.981-6.782V36.071h1.762v33.294h-1.497L61.71,59.147l0.264,0.793
				c-0.528,1.88-1.528,3.582-2.995,5.108c-1.469,1.528-3.23,2.746-5.285,3.655C51.639,69.614,49.524,70.069,47.353,70.069z"/>
		</g>
	</g>
	<path display="inline" d="M59.417,86.458l29.242-67.381h0.705l29.243,67.381h-14.797L85.136,39.072l9.248-6.342L72.012,86.458
		H59.417z M79.411,63.029h19.465l4.492,10.746H75.447L79.411,63.029z"/>
	<path display="inline" d="M158.154,81.085c-0.704,0.588-2.012,1.38-3.92,2.378c-1.908,0.999-4.242,1.88-7.001,2.642
		c-2.761,0.763-5.813,1.115-9.161,1.057c-5.108-0.118-9.675-1.042-13.696-2.774c-4.023-1.731-7.429-4.096-10.217-7.09
		c-2.79-2.995-4.918-6.43-6.386-10.306c-1.468-3.875-2.202-8.015-2.202-12.419c0-4.933,0.749-9.454,2.246-13.564
		c1.498-4.109,3.64-7.663,6.43-10.658c2.788-2.995,6.121-5.313,9.997-6.958c3.876-1.644,8.162-2.466,12.86-2.466
		c4.345,0,8.191,0.587,11.539,1.762c3.347,1.175,6.078,2.437,8.192,3.787l-5.021,12.067c-1.469-1.115-3.421-2.275-5.857-3.479
		c-2.438-1.203-5.241-1.806-8.412-1.806c-2.466,0-4.831,0.515-7.09,1.542c-2.261,1.028-4.258,2.481-5.99,4.36
		c-1.732,1.88-3.098,4.067-4.096,6.562c-0.999,2.497-1.497,5.212-1.497,8.147c0,3.113,0.454,5.96,1.365,8.543
		c0.91,2.584,2.216,4.8,3.919,6.65c1.703,1.85,3.744,3.274,6.122,4.272c2.378,1,5.064,1.498,8.059,1.498
		c3.464,0,6.43-0.558,8.896-1.673c2.466-1.115,4.345-2.291,5.636-3.523L158.154,81.085z"/>
	<path display="inline" d="M129.088,98.438c0.586,0.705,1.335,1.277,2.246,1.717c0.91,0.441,1.922,0.661,3.039,0.661
		c0.998,0,2.04-0.265,3.127-0.792c1.086-0.529,1.629-1.322,1.629-2.379c0-0.646-0.294-1.292-0.881-1.938
		c-0.587-0.646-1.85-0.969-3.788-0.969c-0.94,0-1.85,0.102-2.73,0.309c-0.88,0.205-1.732,0.425-2.554,0.66l-1.673-5.813l6.078-4.492
		h9.424l-6.782,7.575l-2.29-3.083c0.646-0.118,1.277-0.206,1.894-0.265c0.617-0.059,1.218-0.117,1.806-0.176
		c3.288-0.118,6.063,0.498,8.324,1.85c2.26,1.35,3.391,3.404,3.391,6.166c0,2.23-0.661,4.064-1.982,5.505
		c-1.321,1.438-3.025,2.511-5.108,3.215c-2.085,0.704-4.302,1.057-6.65,1.057c-2.584,0-4.698-0.396-6.341-1.188
		c-1.645-0.793-2.966-1.718-3.964-2.775L129.088,98.438z"/>
	<path display="inline" d="M152.869,54.133c0-4.462,0.851-8.69,2.555-12.684c1.702-3.993,4.065-7.531,7.09-10.614
		c3.023-3.083,6.532-5.505,10.525-7.267c3.992-1.761,8.279-2.642,12.859-2.642c4.521,0,8.779,0.881,12.771,2.642
		c3.994,1.762,7.531,4.184,10.615,7.267c3.082,3.083,5.488,6.621,7.223,10.614c1.73,3.994,2.598,8.222,2.598,12.684
		c0,4.58-0.867,8.867-2.598,12.859c-1.734,3.994-4.141,7.502-7.223,10.526c-3.084,3.025-6.621,5.388-10.615,7.09
		c-3.992,1.704-8.25,2.554-12.771,2.554c-4.58,0-8.867-0.851-12.859-2.554c-3.993-1.703-7.502-4.065-10.525-7.09
		c-3.024-3.024-5.388-6.532-7.09-10.526C153.72,63,152.869,58.713,152.869,54.133z"/>
	<path display="inline" d="M192.857,19.85c-1.996,0-3.67-0.425-5.02-1.277c-1.352-0.85-2.586-1.717-3.701-2.598
		c-0.646-0.528-1.275-0.998-1.893-1.409c-0.617-0.41-1.277-0.617-1.982-0.617c-0.764,0-1.365,0.294-1.805,0.881
		c-0.441,0.587-0.721,1.321-0.838,2.202s-0.117,1.761,0,2.642h-6.165c-0.294-2.29-0.103-4.461,0.573-6.518
		c0.674-2.055,1.761-3.729,3.258-5.021c1.498-1.291,3.391-1.938,5.682-1.938c1.467,0,2.789,0.412,3.963,1.233
		c1.174,0.823,2.26,1.645,3.26,2.466c0.822,0.705,1.586,1.321,2.289,1.85c0.705,0.529,1.41,0.793,2.115,0.793
		c1.115,0,1.775-0.661,1.98-1.982s0.279-2.687,0.221-4.096h6.166c0.41,2.525,0.293,4.8-0.352,6.826
		c-0.648,2.026-1.66,3.626-3.039,4.8C196.189,19.263,194.619,19.85,192.857,19.85z"/>
	<path display="inline" d="M217.783,21.632H262v12.331h-31.445v13.829h27.834v12.331h-27.834v14.005h32.678v12.331h-45.449V21.632z"
		/>
	<path display="inline" d="M295.967,37.31c-2.467-1.35-4.977-2.466-7.531-3.347s-4.947-1.321-7.18-1.321
		c-2.76,0-4.932,0.559-6.518,1.674c-1.586,1.116-2.377,2.79-2.377,5.021c0,1.527,0.6,2.893,1.805,4.096
		c1.203,1.204,2.76,2.276,4.668,3.215c1.908,0.94,3.889,1.792,5.945,2.554c1.879,0.705,3.744,1.542,5.594,2.51
		s3.508,2.173,4.977,3.611c1.467,1.439,2.643,3.23,3.523,5.373c0.881,2.144,1.32,4.771,1.32,7.883c0,3.29-0.852,6.342-2.555,9.161
		c-1.703,2.818-4.199,5.095-7.486,6.826c-3.289,1.732-7.34,2.598-12.154,2.598c-2.467,0-4.977-0.25-7.531-0.749
		c-2.555-0.499-5.064-1.262-7.531-2.29c-2.467-1.027-4.844-2.334-7.135-3.92l5.639-9.953c1.525,1.116,3.184,2.1,4.977,2.951
		c1.789,0.852,3.596,1.512,5.416,1.981c1.82,0.471,3.492,0.705,5.02,0.705s3.068-0.22,4.625-0.661
		c1.555-0.44,2.848-1.189,3.875-2.246c1.027-1.057,1.543-2.524,1.543-4.404c0-1.291-0.428-2.466-1.277-3.523
		c-0.854-1.057-1.998-2.026-3.436-2.907c-1.439-0.881-3.01-1.643-4.713-2.29c-1.996-0.762-4.051-1.643-6.166-2.643
		c-2.113-0.998-4.096-2.215-5.945-3.655c-1.85-1.438-3.346-3.229-4.492-5.373c-1.145-2.143-1.717-4.77-1.717-7.883
		c0-3.757,0.836-7.016,2.51-9.777c1.674-2.759,4.037-4.946,7.092-6.562c3.051-1.614,6.574-2.51,10.568-2.687
		c5.227,0,9.469,0.617,12.729,1.85c3.258,1.233,6.18,2.702,8.764,4.404L295.967,37.31z"/>
	<path id="XMLID_2_" display="inline" fill="#FFFFFF" d="M191.055,39.751c0.443-1.052-0.012-2.266-1.037-2.765l-4.686-2.285
		l16.613-7.046l3.199,18.915l-4.738-2.841c-0.49-0.295-1.078-0.38-1.635-0.238c-0.555,0.142-1.031,0.497-1.322,0.99
		c-11.492,19.536-26.54,36.903-57.213,36.291C156.798,77.247,179.43,67.303,191.055,39.751z"/>
	<path id="XMLID_1_" display="inline" fill="#FFFFFF" d="M191.055,39.751c0.443-1.052-0.012-2.266-1.037-2.765l-4.686-2.285
		l16.613-7.046l3.199,18.915l-4.738-2.841c-0.49-0.295-1.078-0.38-1.635-0.238c-0.555,0.142-1.031,0.497-1.322,0.99
		c-11.492,19.536-26.54,36.903-57.213,36.291C156.798,77.247,179.43,67.303,191.055,39.751z"/>
	<g display="inline">
		<g>
			<g>
				<g>
					<path d="M108.364-19.857c0,0.55-0.45,1-1,1h-15.45c-0.55,0-1-0.45-1-1v-35.584c0-0.55,0.45-1,1-1h15.45c0.55,0,1,0.45,1,1
						V-19.857z"/>
				</g>
				<g>
					<path d="M104.001-13.481c0,0.55-0.45,1-1,1h-6.724c-0.55,0-1-0.45-1-1v-48.335c0-0.55,0.45-1,1-1h6.724c0.55,0,1,0.45,1,1
						V-13.481z"/>
				</g>
			</g>
			<g>
				<g>
					<path d="M130.513-11.732c0,0.55-0.45,1-1,1h-15.451c-0.55,0-1-0.45-1-1v-35.584c0-0.55,0.45-1,1-1h15.451c0.55,0,1,0.45,1,1
						V-11.732z"/>
				</g>
				<g>
					<path d="M126.149-5.356c0,0.55-0.45,1-1,1h-6.725c-0.55,0-1-0.45-1-1v-48.335c0-0.55,0.45-1,1-1h6.725c0.55,0,1,0.45,1,1
						V-5.356z"/>
				</g>
			</g>
			<g>
				<g>
					<path d="M152.323-19.857c0,0.55-0.45,1-1,1h-15.449c-0.55,0-1-0.45-1-1v-35.584c0-0.55,0.45-1,1-1h15.449c0.55,0,1,0.45,1,1
						V-19.857z"/>
				</g>
				<g>
					<path d="M147.96-13.481c0,0.55-0.45,1-1,1h-6.724c-0.55,0-1-0.45-1-1v-48.335c0-0.55,0.45-1,1-1h6.724c0.55,0,1,0.45,1,1
						V-13.481z"/>
				</g>
			</g>
			<g>
				<g>
					<path d="M174.472-11.732c0,0.55-0.45,1-1,1h-15.451c-0.55,0-1-0.45-1-1v-35.584c0-0.55,0.45-1,1-1h15.451c0.55,0,1,0.45,1,1
						V-11.732z"/>
				</g>
				<g>
					<path d="M170.108-5.356c0,0.55-0.45,1-1,1h-6.725c-0.55,0-1-0.45-1-1v-48.335c0-0.55,0.45-1,1-1h6.725c0.55,0,1,0.45,1,1
						V-5.356z"/>
				</g>
			</g>
			<g>
				<g>
					<path d="M196.282-19.857c0,0.55-0.45,1-1,1h-15.449c-0.55,0-1-0.45-1-1v-35.584c0-0.55,0.45-1,1-1h15.449c0.55,0,1,0.45,1,1
						V-19.857z"/>
				</g>
				<g>
					<path d="M191.919-13.481c0,0.55-0.45,1-1,1h-6.723c-0.55,0-1-0.45-1-1v-48.335c0-0.55,0.45-1,1-1h6.723c0.55,0,1,0.45,1,1
						V-13.481z"/>
				</g>
			</g>
			<g>
				<g>
					<path d="M241.249-19.857c0,0.55-0.45,1-1,1H224.8c-0.55,0-1-0.45-1-1v-35.584c0-0.55,0.45-1,1-1h15.449c0.55,0,1,0.45,1,1
						V-19.857z"/>
				</g>
				<g>
					<path d="M236.886-13.481c0,0.55-0.45,1-1,1h-6.723c-0.55,0-1-0.45-1-1v-48.335c0-0.55,0.45-1,1-1h6.723c0.55,0,1,0.45,1,1
						V-13.481z"/>
				</g>
			</g>
			<g>
				<g>
					<path d="M218.431-11.732c0,0.55-0.45,1-1,1h-15.451c-0.55,0-1-0.45-1-1v-35.584c0-0.55,0.45-1,1-1h15.451c0.55,0,1,0.45,1,1
						V-11.732z"/>
				</g>
				<g>
					<path d="M214.067-5.356c0,0.55-0.45,1-1,1h-6.725c-0.55,0-1-0.45-1-1v-48.335c0-0.55,0.45-1,1-1h6.725c0.55,0,1,0.45,1,1
						V-5.356z"/>
				</g>
			</g>
		</g>
	</g>
</g>
<g id="Camada_1_cópia">
	<g>
		<g>
			<path fill="#FFFFFF" d="M6.043,36.071l0.353,10.746l-0.264-1.233c0.938-3.171,2.774-5.651,5.505-7.442
				c2.73-1.791,5.769-2.687,9.116-2.687c3.112,0,5.593,0.925,7.443,2.774s2.803,4.214,2.862,7.09v24.046h-1.762v-23.87
				c-0.059-2.348-0.836-4.33-2.334-5.945c-1.497-1.614-3.626-2.48-6.386-2.599c-2.466,0-4.771,0.544-6.914,1.63
				c-2.145,1.087-3.875,2.613-5.197,4.58c-1.321,1.968-1.982,4.272-1.982,6.914v19.29H4.722V36.071H6.043z"/>
			<path fill="#FFFFFF" d="M47.353,70.069c-3.113,0-5.58-0.925-7.399-2.774c-1.821-1.85-2.79-4.242-2.907-7.179V36.071h1.762v23.781
				c0.058,2.409,0.837,4.419,2.334,6.034c1.498,1.616,3.685,2.481,6.562,2.598c2.348,0,4.594-0.572,6.738-1.717
				c2.143-1.145,3.875-2.715,5.197-4.712c1.321-1.996,1.981-4.257,1.981-6.782V36.071h1.762v33.294h-1.497L61.71,59.147l0.264,0.793
				c-0.528,1.88-1.528,3.582-2.995,5.108c-1.469,1.528-3.23,2.746-5.285,3.655C51.639,69.614,49.524,70.069,47.353,70.069z"/>
		</g>
	</g>
	<path fill="#FFFFFF" d="M192.857,19.85c-1.996,0-3.67-0.425-5.02-1.277c-1.352-0.85-2.586-1.717-3.701-2.598
		c-0.646-0.528-1.275-0.998-1.893-1.409c-0.617-0.41-1.277-0.617-1.982-0.617c-0.764,0-1.365,0.294-1.805,0.881
		c-0.441,0.587-0.721,1.321-0.838,2.202s-0.117,1.761,0,2.642h-6.165c-0.294-2.29-0.103-4.461,0.573-6.518
		c0.674-2.055,1.761-3.729,3.258-5.021c1.498-1.291,3.391-1.938,5.682-1.938c1.467,0,2.789,0.412,3.963,1.233
		c1.174,0.823,2.26,1.645,3.26,2.466c0.822,0.705,1.586,1.321,2.289,1.85c0.705,0.529,1.41,0.793,2.115,0.793
		c1.115,0,1.775-0.661,1.98-1.982s0.279-2.687,0.221-4.096h6.166c0.41,2.525,0.293,4.8-0.352,6.826
		c-0.648,2.026-1.66,3.626-3.039,4.8C196.189,19.263,194.619,19.85,192.857,19.85z"/>
	<path fill="#FFFFFF" d="M295.35,55.322c-1.469-1.438-3.127-2.643-4.977-3.611s-3.715-1.806-5.594-2.51
		c-2.057-0.762-4.037-1.614-5.945-2.554c-1.908-0.938-3.465-2.011-4.668-3.215c-1.205-1.203-1.805-2.568-1.805-4.096
		c0-2.231,0.791-3.904,2.377-5.021c1.586-1.115,3.758-1.674,6.518-1.674c2.232,0,4.625,0.44,7.18,1.321s5.064,1.997,7.531,3.347
		l4.844-9.777c-2.584-1.703-5.506-3.171-8.764-4.404c-3.26-1.233-7.502-1.85-12.729-1.85c-3.994,0.176-7.518,1.072-10.568,2.687
		c-2.857,1.511-5.101,3.529-6.75,6.04v-8.374h-44.217v64.827h45.449V84.24c2.371,0.966,4.781,1.696,7.234,2.175
		c2.555,0.498,5.064,0.749,7.531,0.749c4.814,0,8.865-0.866,12.154-2.598c3.287-1.731,5.783-4.008,7.486-6.826
		c1.703-2.819,2.555-5.871,2.555-9.161c0-3.111-0.439-5.739-1.32-7.883C297.992,58.552,296.816,56.762,295.35,55.322z
		 M285.352,72.982c-1.027,1.057-2.32,1.806-3.875,2.246c-1.557,0.44-3.098,0.661-4.625,0.661s-3.199-0.234-5.02-0.705
		c-1.82-0.469-3.627-1.13-5.416-1.981c-1.793-0.851-3.451-1.834-4.977-2.951l-2.195,3.875h-28.689V60.123h27.834V47.792h-27.834
		V33.963h29.539c-0.628,1.928-0.945,4.04-0.945,6.342c0,3.113,0.572,5.74,1.717,7.883c1.146,2.144,2.643,3.935,4.492,5.373
		c1.85,1.44,3.832,2.658,5.945,3.655c2.115,1,4.17,1.88,6.166,2.643c1.703,0.647,3.273,1.409,4.713,2.29
		c1.438,0.881,2.582,1.85,3.436,2.907c0.85,1.057,1.277,2.232,1.277,3.523C286.895,70.458,286.379,71.925,285.352,72.982z"/>
	<path fill="#FFFFFF" d="M147.233,86.106c2.759-0.762,5.093-1.643,7.001-2.642c1.908-0.998,3.216-1.791,3.92-2.378l-0.956-2.072
		c-5.072,1.245-10.685,1.883-16.962,1.758c4.792-1.02,10.094-2.583,15.489-4.949l-2.856-6.188c-1.291,1.233-3.17,2.408-5.636,3.523
		c-2.466,1.116-5.432,1.673-8.896,1.673c-2.995,0-5.681-0.498-8.059-1.498c-2.378-0.998-4.419-2.422-6.122-4.272
		c-1.704-1.85-3.01-4.065-3.919-6.65c-0.911-2.583-1.365-5.431-1.365-8.543c0-2.936,0.498-5.651,1.497-8.147
		c0.998-2.495,2.363-4.682,4.096-6.562c1.731-1.878,3.729-3.332,5.99-4.36c2.26-1.027,4.624-1.542,7.09-1.542
		c3.171,0,5.974,0.603,8.412,1.806c2.436,1.204,4.388,2.364,5.857,3.479l5.021-12.067c-2.114-1.35-4.845-2.612-8.192-3.787
		c-3.347-1.174-7.194-1.762-11.539-1.762c-4.698,0-8.984,0.823-12.86,2.466c-3.875,1.645-7.208,3.963-9.997,6.958
		c-2.79,2.995-4.933,6.548-6.43,10.658c-1.497,4.111-2.246,8.632-2.246,13.564c0,0.667,0.022,1.324,0.056,1.979L89.363,19.078
		h-0.705L59.417,86.458h12.595l5.281-12.684h21.518l4.998,12.684h14.797l-3.602-8.3c2.624,2.588,5.745,4.669,9.372,6.23
		c2.346,1.011,4.883,1.738,7.6,2.199l-4.473,3.306l1.673,5.813c0.822-0.235,1.674-0.455,2.554-0.66
		c0.881-0.207,1.791-0.309,2.73-0.309c1.938,0,3.2,0.322,3.788,0.969c0.586,0.646,0.881,1.291,0.881,1.938
		c0,1.057-0.543,1.85-1.629,2.379c-1.087,0.527-2.129,0.792-3.127,0.792c-1.116,0-2.129-0.22-3.039-0.661
		c-0.911-0.439-1.66-1.012-2.246-1.717l-3.788,4.844c0.998,1.058,2.319,1.982,3.964,2.775c1.643,0.793,3.757,1.188,6.341,1.188
		c2.348,0,4.565-0.353,6.65-1.057c2.083-0.704,3.787-1.776,5.108-3.215c1.321-1.44,1.982-3.274,1.982-5.505
		c0-2.762-1.131-4.816-3.391-6.166c-1.852-1.106-4.053-1.712-6.593-1.833l2.167-2.42C143.547,86.898,145.457,86.597,147.233,86.106z
		 M81.768,63.029l6.581-15.805l6.228,15.805H81.768z"/>
	<path fill="#FFFFFF" d="M216.508,41.45c-1.734-3.993-4.141-7.531-7.223-10.614c-3.084-3.083-6.621-5.505-10.615-7.267
		c-3.992-1.761-8.25-2.642-12.771-2.642c-4.58,0-8.867,0.881-12.859,2.642c-3.993,1.762-7.502,4.184-10.525,7.267
		c-3.024,3.083-5.388,6.621-7.09,10.614c-1.704,3.994-2.555,8.222-2.555,12.684c0,4.58,0.851,8.867,2.555,12.859
		c1.086,2.547,2.443,4.895,4.066,7.047c12.046-6.128,24.084-16.56,31.564-34.289c0.443-1.052-0.012-2.266-1.037-2.765l-4.686-2.285
		l16.613-7.046l3.199,18.915l-4.738-2.841c-0.49-0.295-1.078-0.38-1.635-0.238c-0.555,0.142-1.031,0.497-1.322,0.99
		c-8.298,14.106-18.452,27.077-35.001,32.969c0.022,0.022,0.043,0.046,0.065,0.068c3.023,3.025,6.532,5.388,10.525,7.09
		c3.992,1.704,8.279,2.554,12.859,2.554c4.521,0,8.779-0.851,12.771-2.554c3.994-1.703,7.531-4.065,10.615-7.09
		c3.082-3.024,5.488-6.532,7.223-10.526c1.73-3.992,2.598-8.279,2.598-12.859C219.105,49.671,218.238,45.443,216.508,41.45z"/>
</g>
</svg>
